<svg width="1920" height="10000" viewBox="0 0 1920 10000" fill="none" xmlns="http://www.w3.org/2000/svg">
<g filter="url(#filter0_b_208_44)">
<rect width="1920" height="10000" fill="#041125"/>
<path fill-rule="evenodd" clip-rule="evenodd" d="M323.817 877.497C369.331 890.031 375.532 958.028 400.634 1003.72C420.021 1039.01 455.682 1066.68 450.489 1108.07C445.001 1151.81 409.774 1179.37 376.004 1200.02C340.075 1221.99 300.537 1237.97 261.903 1223.39C216.125 1206.11 174.213 1171.02 159.053 1118.13C142.198 1059.32 148.405 991.972 181.654 943.412C215.01 894.698 271.567 863.108 323.817 877.497Z" fill="#0B6481"/>
<path fill-rule="evenodd" clip-rule="evenodd" d="M1474.32 2955.83C1580.89 2952.48 1667.11 2786.75 1757.04 2844.02C1842.52 2898.46 1774.6 3034.07 1752.49 3132.97C1730.18 3232.77 1732.79 3376.68 1632.99 3398.95C1532.09 3421.47 1476.04 3286.73 1406.57 3210.18C1377.34 3177.96 1379.17 3134.06 1358.08 3096.02C1311.12 3011.33 1151.2 2935.63 1213.01 2861.09C1275.23 2786.06 1376.89 2958.88 1474.32 2955.83Z" fill="#1C3C6D"/>
<path fill-rule="evenodd" clip-rule="evenodd" d="M1581.09 4918.35C1653.74 4921.97 1726.44 4943.12 1750.19 4994.26C1775.15 5048.03 1745.17 5106.14 1684.3 5140.63C1618.36 5177.98 1530.84 5191.04 1460.55 5158.36C1371.67 5117.02 1287.11 5045.96 1323.77 4972.96C1358.25 4904.31 1482.69 4913.43 1581.09 4918.35Z" fill="#093F4A"/>
<path fill-rule="evenodd" clip-rule="evenodd" d="M567.156 8765.79C630.189 8747.3 711.4 8740.27 752.715 8791.33C794.13 8842.52 763.363 8917.31 739.334 8978.61C720.453 9026.78 678.075 9053.26 637.477 9085.34C569.271 9139.22 515.093 9243.84 430.89 9222.27C343.642 9199.92 290.069 9088.78 302.887 8999.63C313.871 8923.24 423.605 8922.07 481.406 8870.93C517.04 8839.4 521.5 8779.18 567.156 8765.79Z" fill="#2C387C"/>
<path fill-rule="evenodd" clip-rule="evenodd" d="M529.169 4566.97C609.642 4534.4 725.87 4577.41 763.464 4655.66C800.573 4732.9 723.973 4813.98 684.349 4889.96C666.745 4923.72 626.213 4933.58 602.853 4963.64C571.814 5003.59 574.303 5066.82 529.169 5089.66C459.26 5125.05 372.827 5152.93 304.441 5114.69C225.565 5070.57 139.47 4974.24 172.092 4889.96C206.644 4800.69 358.873 4854.86 429.863 4790.65C492.757 4733.76 450.554 4598.78 529.169 4566.97Z" fill="#296C81"/>
<path d="M1772 151L1778.06 176.566H1797.68L1781.81 192.367L1787.87 217.934L1772 202.133L1756.13 217.934L1762.19 192.367L1746.32 176.566H1765.94L1772 151Z" fill="#FBFF2D"/>
<path d="M92 4103L98.0619 4128.57H117.679L101.808 4144.37L107.87 4169.93L92 4154.13L76.1298 4169.93L82.1917 4144.37L66.3215 4128.57H85.9381L92 4103Z" fill="#FBFF2D"/>
<path d="M1624 1343L1630.06 1368.57H1649.68L1633.81 1384.37L1639.87 1409.93L1624 1394.13L1608.13 1409.93L1614.19 1384.37L1598.32 1368.57H1617.94L1624 1343Z" fill="#FBFF2D"/>
<path d="M220 1771L226.062 1796.57H245.679L229.808 1812.37L235.87 1837.93L220 1822.13L204.13 1837.93L210.192 1812.37L194.321 1796.57H213.938L220 1771Z" fill="#FBFF2D"/>
<path d="M1472 2731L1478.06 2756.57H1497.68L1481.81 2772.37L1487.87 2797.93L1472 2782.13L1456.13 2797.93L1462.19 2772.37L1446.32 2756.57H1465.94L1472 2731Z" fill="#FBFF2D"/>
<path d="M92 6388L98.0619 6413.57H117.679L101.808 6429.37L107.87 6454.93L92 6439.13L76.1298 6454.93L82.1917 6429.37L66.3215 6413.57H85.9381L92 6388Z" fill="#FBFF2D"/>
<path d="M1539 7696L1545.06 7721.57H1564.68L1548.81 7737.37L1554.87 7762.93L1539 7747.13L1523.13 7762.93L1529.19 7737.37L1513.32 7721.57H1532.94L1539 7696Z" fill="#FBFF2D"/>
<path d="M403 8752L409.062 8777.57H428.679L412.808 8793.37L418.87 8818.93L403 8803.13L387.13 8818.93L393.192 8793.37L377.321 8777.57H396.938L403 8752Z" fill="#FBFF2D"/>
</g>
<defs>
<filter id="filter0_b_208_44" x="-4" y="-4" width="1928" height="10008" filterUnits="userSpaceOnUse" color-interpolation-filters="sRGB">
<feFlood flood-opacity="0" result="BackgroundImageFix"/>
<feGaussianBlur in="BackgroundImageFix" stdDeviation="2"/>
<feComposite in2="SourceAlpha" operator="in" result="effect1_backgroundBlur_208_44"/>
<feBlend mode="normal" in="SourceGraphic" in2="effect1_backgroundBlur_208_44" result="shape"/>
</filter>
</defs>
</svg>
